PathFileType	4	(X/Y/Z)	C:/Users/opensim2020/Desktop/walking_exp_matlab/subject01_walking04_straight_03.trc																																																																																																																															
DataRate	CameraRate	NumFrames	NumMarkers	Units	OrigDataRate	OrigDataStartFrame	OrigNumFrames																																																																																																																											
100	100	5	43	mm	100	2128	211																																																																																																																											
Frame#	Time	LFHD			RFHD			LBHD			RBHD			C7			T10			CLAV			STRN			RBAK			LSHO			LUPA			LELB			LFRM			LWRA			LWRB			LFIN			RSHO			RUPA			RELB			RFRM			RWRA			RWRB			RFIN			LASI			RASI			LPSI			RPSI			LTHI			LKNE			LTIB			LANK			LHEE			LTOE			RTHI			RKNE			RTIB			RANK			RHEE			RTOE			*39			*40			*41			*42		
		X1	Y1	Z1	X2	Y2	Z2	X3	Y3	Z3	X4	Y4	Z4	X5	Y5	Z5	X6	Y6	Z6	X7	Y7	Z7	X8	Y8	Z8	X9	Y9	Z9	X10	Y10	Z10	X11	Y11	Z11	X12	Y12	Z12	X13	Y13	Z13	X14	Y14	Z14	X15	Y15	Z15	X16	Y16	Z16	X17	Y17	Z17	X18	Y18	Z18	X19	Y19	Z19	X20	Y20	Z20	X21	Y21	Z21	X22	Y22	Z22	X23	Y23	Z23	X24	Y24	Z24	X25	Y25	Z25	X26	Y26	Z26	X27	Y27	Z27	X28	Y28	Z28	X29	Y29	Z29	X30	Y30	Z30	X31	Y31	Z31	X32	Y32	Z32	X33	Y33	Z33	X34	Y34	Z34	X35	Y35	Z35	X36	Y36	Z36	X37	Y37	Z37	X38	Y38	Z38	X39	Y39	Z39	X40	Y40	Z40	X41	Y41	Z41	X42	Y42	Z42	X43	Y43	Z43
																																																																																																																																		
27	0.26	-786.47699	1661.1543	-1143.74756	-770.57703	1668.73926	-1030.24854	-900.17981	1607.98352	-1131.99585	-886.35736	1614.19482	-1012.05969	-932.2146	1420.87659	-1086.51636	-967.51129	1129.31799	-1059.83521	-787.35016	1352.45374	-1087.95703	-745.7417	1198.42554	-1091.39893	-982.93109	1228.29773	-1000.289	-854.44977	1373.45605	-1247.09424	-872.67444	1190.08667	-1330.98755	-864.65619	1037.61401	-1342.95483	-781.97461	955.86475	-1370.71265	-657.89697	894.4884	-1358.82886	-704.38202	862.01715	-1379.40308	-629.8371	827.40839	-1395.43494	-845.34924	1384.45984	-933.73108	-920.90698	1195.51477	-828.7381	-937.96454	1073.96533	-823.55981	-939.47833	956.42029	-785.70099	-890.25714	821.8952	-796.34808	-932.76251	836.38977	-757.98126	-917.98853	750.5249	-757.6048	-804.75989	916.31567	-1171.05054	-780.10803	931.23364	-956.42944	-983.33386	936.36511	-1094.2699	-964.80853	942.88202	-950.20044	-892.35376	597.67249	-1238.12085	-932.65161	468.00607	-1239.495	-1072.2478	336.59796	-1242.27783	-1195.12292	148.59854	-1202.54175	-1228.82361	143.61095	-1138.80286	-1108.87378	29.63433	-1234.75867	-775.49658	602.58557	-889.8288	-734.74823	450.90762	-921.83899	-756.59454	275.23978	-914.91711	-746.32666	70.79723	-967.64337	-790.47321	30.78795	-1020.56335	-604.55774	38.12391	-967.5611	-785.7785	1701.02881	-1052.89502	1973.12048	1023.32605	-3101.84692	2012.54895	1021.92621	-3140.57153	NaN	NaN	NaN
28	0.27	-777.67719	1662.01013	-1141.03442	-761.96045	1669.84534	-1027.88062	-891.47485	1609.28894	-1129.39612	-877.50079	1615.59595	-1009.44263	-923.5354	1421.80078	-1083.83264	-958.75574	1130.36609	-1058.03174	-778.85559	1353.67871	-1084.89575	-736.94324	1199.75684	-1088.74158	-974.03467	1229.38257	-997.51514	-845.80762	1374.87097	-1244.42871	-864.31885	1191.62732	-1328.60425	-858.46478	1038.90771	-1339.52136	-777.33307	955.49414	-1367.16455	-654.35883	891.68988	-1355.08496	-701.43054	860.41937	-1376.0415	-627.26898	824.04645	-1391.37683	-836.74878	1385.81921	-931.17468	-911.80493	1196.69226	-826.16803	-928.19684	1074.81396	-821.2149	-928.14862	956.9115	-783.90027	-877.18463	823.14868	-795.51086	-919.43536	836.95056	-756.86072	-903.75293	751.13263	-756.91522	-795.07526	917.71075	-1168.2052	-771.60114	932.36017	-953.76147	-974.21039	937.47748	-1092.97644	-956.26532	944.10138	-948.89197	-876.20258	597.16437	-1237.52734	-914.13104	467.14645	-1239.5332	-1056.42505	339.41489	-1242.75928	-1184.34717	155.34407	-1203.1438	-1218.16736	152.42426	-1139.30652	-1105.9939	30.84487	-1233.3927	-771.17499	602.95709	-888.15637	-731.7312	450.63214	-920.17047	-754.79663	274.84122	-914.11694	-746.1568	70.80196	-967.58722	-790.38904	30.72531	-1020.49878	-604.39246	37.67983	-967.56732	-776.5791	1702.05347	-1050.44275	1973.0155	1023.82196	-3102.00366	2012.59094	1022.04681	-3140.52661	NaN	NaN	NaN
29	0.28	-768.87311	1662.83496	-1138.56348	-752.58905	1670.68066	-1025.15979	-882.78351	1610.47632	-1126.81665	-868.73297	1616.85571	-1006.85706	-915.24347	1422.74023	-1081.16431	-949.97528	1131.26392	-1056.12219	-770.17139	1354.97205	-1082.77246	-728.27002	1200.97241	-1086.15759	-965.13049	1230.38	-994.57666	-837.24304	1376.10022	-1241.69458	-856.2428	1193.0105	-1326.20654	-852.40741	1039.96472	-1336.04736	-773.00452	955.16327	-1363.82593	-651.02075	888.74927	-1351.38745	-698.63574	858.51855	-1372.95349	-625.08966	820.4317	-1387.32324	-828.10938	1386.9845	-928.77148	-902.64697	1197.82544	-823.38965	-918.47345	1075.45422	-818.75867	-916.7005	957.31226	-781.95093	-863.74493	824.35199	-794.48505	-906.36554	837.38721	-755.3999	-888.9552	751.66382	-756.21271	-785.72931	918.95367	-1165.64319	-763.36792	933.30286	-951.26227	-965.29199	938.39111	-1091.76941	-948.02911	945.21826	-947.68158	-859.76483	596.71649	-1236.92554	-895.36774	466.06042	-1239.41382	-1039.74731	341.6033	-1243.17249	-1172.62805	161.99387	-1203.42529	-1206.98584	160.88387	-1139.81506	-1101.74329	33.62328	-1232.52844	-768.06165	602.94501	-886.88727	-728.59894	450.08948	-918.04431	-753.50574	274.47885	-913.49823	-746.05493	70.51431	-967.50262	-790.41302	30.68609	-1020.42059	-604.33057	37.33186	-967.37317	-767.55231	1703.09583	-1047.95068	1973.09155	1023.28821	-3101.86646	2012.52161	1021.94049	-3140.4436	NaN	NaN	NaN
30	0.29	-760.05603	1663.62	-1136.06775	-743.61877	1671.55505	-1022.66595	-874.12854	1611.55493	-1124.23914	-859.97229	1618.01062	-1004.26111	-906.73682	1423.42493	-1078.4635	-941.34058	1132.03418	-1054.0752	-761.73712	1355.94739	-1080.17456	-719.68787	1202.04736	-1083.62683	-956.29431	1231.31897	-991.60126	-828.77563	1377.23926	-1239.15234	-848.41254	1194.24561	-1323.75488	-846.37451	1040.99231	-1332.66907	-768.66565	954.44342	-1360.52588	-648.03229	885.62244	-1347.84216	-696.15942	856.40216	-1369.55127	-623.33466	816.50696	-1383.46643	-819.16144	1388.18665	-926.21301	-893.43451	1198.76526	-820.5296	-908.74872	1075.97961	-816.12115	-905.08185	957.49414	-779.82141	-850.00116	825.55298	-793.36316	-891.89429	837.56818	-754.01392	-873.8443	752.11249	-755.40802	-776.64465	919.99652	-1163.2406	-755.42383	933.94739	-948.92212	-956.69684	939.09149	-1090.69495	-939.97809	946.21881	-946.52753	-843.58502	595.84302	-1235.94568	-876.5484	464.91998	-1239.07361	-1022.30865	343.05731	-1243.57349	-1160.20166	168.6956	-1203.21362	-1195.71399	169.51668	-1139.9248	-1095.09131	37.62177	-1231.59448	-764.00964	602.91138	-885.48676	-726.29883	449.57285	-916.5835	-752.47375	274.25049	-912.82941	-746.37451	70.45477	-967.37097	-790.53937	30.76172	-1020.4231	-604.29535	37.07297	-967.27405	-758.61975	1703.86133	-1045.54822	1973.00513	1023.29822	-3101.86011	2012.5824	1022.01556	-3140.60376	NaN	NaN	NaN
31	0.3	-751.33893	1664.38672	-1133.60083	-734.88855	1672.24304	-1020.36041	-865.48749	1612.56189	-1121.71497	-851.20819	1619.05933	-1001.68469	-898.44244	1424.33374	-1075.85315	-932.75818	1132.74902	-1052.00122	-753.30206	1356.76709	-1077.30627	-711.17651	1203.03577	-1081.26672	-947.63818	1232.30408	-988.68097	-820.47211	1378.21521	-1236.62561	-840.92877	1195.27991	-1321.17188	-840.37946	1041.82947	-1329.25745	-764.51257	953.74359	-1357.23181	-645.25189	882.31177	-1344.42566	-693.97406	854.41827	-1366.4082	-622.03253	812.49976	-1379.87341	-810.64374	1388.79785	-923.79504	-883.98553	1199.53125	-817.60638	-898.99524	1076.32837	-813.3692	-893.29724	957.61615	-777.52917	-835.89844	826.677	-792.05499	-878.38129	837.88416	-752.21936	-857.83734	752.44049	-754.50629	-767.81073	920.87244	-1161.1698	-747.52155	934.48853	-946.78888	-948.33813	939.60156	-1089.70129	-932.16919	947.09424	-945.47998	-827.5448	595.0755	-1234.91345	-857.81458	463.79105	-1238.56921	-1004.28656	344.02069	-1243.98059	-1147.32092	175.22833	-1202.24878	-1183.74133	177.77065	-1139.36462	-1086.27881	42.59624	-1230.57776	-759.29871	603.1463	-883.92859	-723.48877	449.07681	-915.18903	-751.56781	274.00497	-912.24091	-746.40973	70.48411	-967.31433	-791.45746	31.25673	-1020.07806	-604.24591	36.82274	-967.22064	-749.80438	1704.69434	-1043.10547	1973.15552	1023.42438	-3101.87817	2012.56616	1022.09265	-3140.6416	NaN	NaN	NaN
